<svg width="16" height="16" viewBox="0 0 16 16" fill="none" xmlns="http://www.w3.org/2000/svg">
<path d="M1.98828 8C1.98828 8.78793 2.14348 9.56815 2.445 10.2961C2.74653 11.0241 3.18849 11.6855 3.74564 12.2426C4.30279 12.7998 4.96423 13.2417 5.69218 13.5433C6.42013 13.8448 7.20035 14 7.98828 14C8.77621 14 9.55643 13.8448 10.2844 13.5433C11.0123 13.2417 11.6738 12.7998 12.2309 12.2426C12.7881 11.6855 13.23 11.0241 13.5316 10.2961C13.8331 9.56815 13.9883 8.78793 13.9883 8C13.9883 6.4087 13.3561 4.88258 12.2309 3.75736C11.1057 2.63214 9.57958 2 7.98828 2C6.39698 2 4.87086 2.63214 3.74564 3.75736C2.62042 4.88258 1.98828 6.4087 1.98828 8Z" stroke="black" stroke-width="1.33333" stroke-linecap="round" stroke-linejoin="round"/>
<path d="M7.98828 4.66602V7.99935L9.98828 9.99935" stroke="black" stroke-width="1.33333" stroke-linecap="round" stroke-linejoin="round"/>
</svg>
