<svg width="16" height="16" viewBox="0 0 16 16" fill="none" xmlns="http://www.w3.org/2000/svg">
<g clip-path="url(#clip0_1686_14098)">
<rect width="16" height="16" rx="8" fill="#BABABA"/>
<g clip-path="url(#clip1_1686_14098)">
<path d="M13.6511 13.3843C12.9215 12.5937 12.036 11.9628 11.0505 11.5313C10.0649 11.0997 9.00073 10.877 7.92487 10.877C6.84901 10.877 5.7848 11.0997 4.79928 11.5313C3.81376 11.9628 2.92827 12.5937 2.19859 13.3843C2.08556 13.5087 2.02249 13.6704 2.02148 13.8384V16.5631C2.02387 16.7421 2.09669 16.9131 2.22417 17.0389C2.35166 17.1646 2.52355 17.2352 2.70264 17.2351H13.1471C13.3277 17.2351 13.501 17.1634 13.6287 17.0356C13.7565 16.9079 13.8282 16.7346 13.8282 16.554V13.8293C13.825 13.6645 13.7621 13.5063 13.6511 13.3843Z" fill="#6A6A6A"/>
<path d="M7.92288 9.96882C9.67846 9.96882 11.1016 8.54564 11.1016 6.79007C11.1016 5.0345 9.67846 3.61133 7.92288 3.61133C6.16731 3.61133 4.74414 5.0345 4.74414 6.79007C4.74414 8.54564 6.16731 9.96882 7.92288 9.96882Z" fill="#6A6A6A"/>
</g>
</g>
<defs>
<clipPath id="clip0_1686_14098">
<rect width="16" height="16" rx="8" fill="white"/>
</clipPath>
<clipPath id="clip1_1686_14098">
<rect width="16.3478" height="16.3478" fill="white" transform="translate(-0.25 2.25)"/>
</clipPath>
</defs>
</svg>
